<svg xmlns="http://www.w3.org/2000/svg" viewBox="0 0 32 32" width="32" height="32">
  <!-- Background -->
  <rect width="32" height="32" rx="7" fill="#030b14"/>
  <!-- Dumbbell icon (Lucide, scaled from 24x24 to fit in 32x32 with 5px padding = 22px icon area) -->
  <g transform="translate(5, 5) scale(0.9167)" stroke="#06c7c8" stroke-width="2" stroke-linecap="round" stroke-linejoin="round" fill="none">
    <path d="M14.4 14.4 9.6 9.6"/>
    <path d="M18.657 21.485a2 2 0 1 1-2.829-2.828l-1.767 1.768a2 2 0 1 1-2.829-2.829l6.364-6.364a2 2 0 1 1 2.829 2.829l-1.768 1.767a2 2 0 1 1 2.828 2.829z"/>
    <path d="m21.5 21.5-1.4-1.4"/>
    <path d="M3.9 3.9 2.5 2.5"/>
    <path d="M6.404 12.768a2 2 0 1 1-2.829-2.829l1.768-1.767a2 2 0 1 1-2.828-2.829l2.828-2.828a2 2 0 1 1 2.829 2.828l1.767-1.768a2 2 0 1 1 2.829 2.829z"/>
  </g>
</svg>
